<svg xmlns="http://www.w3.org/2000/svg" enable-background="new 0 0 30 32" viewBox="0 0 30 32"><path d="M15,0C7.009,0,0,6.542,0,14c0,6.081,3.898,11.018,10,12.771V31c0,0.347,0.18,0.668,0.474,0.851   C10.635,31.95,10.817,32,11,32c0.153,0,0.306-0.035,0.447-0.105l10.067-5.037C27.383,23.336,30,19.371,30,14   C30,6.542,22.991,0,15,0z M20.553,25.105L12,29.382V26c0-0.463-0.319-0.866-0.77-0.973C5.623,23.7,2,19.372,2,14   C2,7.607,8.075,2,15,2s13,5.607,13,12C28,18.65,25.752,21.982,20.553,25.105z"/><path d="M17 13.697l-2.168-3.252c-.245-.367-.7-.53-1.122-.402C13.289 10.17 13 10.56 13 11v7h2v-3.697l2.168 3.252C17.357 17.838 17.672 18 18 18c.097 0 .194-.014.29-.043C18.711 17.83 19 17.44 19 17v-7h-2V13.697zM25 12v-2h-4c-.552 0-1 .448-1 1v6c0 .552.448 1 1 1h4v-2h-3v-1h3v-2h-3v-1H25zM7 10H5v7c0 .552.448 1 1 1h3v-2H7V10z"/><rect width="2" height="8" x="10" y="10"/></svg>