<svg id="Layer_1" data-name="Layer 1" xmlns="http://www.w3.org/2000/svg" viewBox="0 0 533.33 530.09"><defs><style>.cls-1{fill:#1877f2;}</style></defs><title>Facebook2-f_Logo-Blue-Logo.wine</title><path class="cls-1" d="M732.91,370.54c0-147.27-119.39-266.66-266.67-266.66S199.57,223.27,199.57,370.54c0,133.1,97.52,243.43,225,263.43V447.63h-67.7V370.54h67.7V311.79C424.57,245,464.39,208,525.3,208c29.17,0,59.69,5.21,59.69,5.21v65.63H551.36c-33.12,0-43.45,20.55-43.45,41.64v50h74L570,447.63H507.91V634c127.48-20,225-130.33,225-263.43" transform="translate(-199.57 -103.88)"/><path class="cls-1" d="M333.33,133.33" transform="translate(-199.57 -103.88)"/></svg>
