<svg id="Layer_1" data-name="Layer 1" xmlns="http://www.w3.org/2000/svg" xmlns:xlink="http://www.w3.org/1999/xlink" viewBox="0 0 320 320"><defs><style>.cls-1{fill:none;}.cls-2{clip-path:url(#clip-path);}.cls-3{fill:#4cc764;}.cls-4{fill:#fff;}</style><clipPath id="clip-path" transform="translate(-808.5 -448.51)"><rect class="cls-1" width="1937.01" height="1217.01"/></clipPath></defs><title>LINE_APP_Android_RGB</title><g class="cls-2"><path class="cls-3" d="M1128.5,608.51a160,160,0,1,1-160-160,160,160,0,0,1,160,160" transform="translate(-808.5 -448.51)"/><path class="cls-4" d="M1075.21,599.19c0-47.8-47.92-86.68-106.82-86.68s-106.81,38.88-106.81,86.68c0,42.85,38,78.73,89.33,85.52,3.48.75,8.21,2.29,9.41,5.26,1.08,2.7.71,6.93.35,9.66,0,0-1.26,7.54-1.53,9.14-.46,2.7-2.14,10.57,9.25,5.76s61.52-36.22,83.93-62h0c15.48-17,22.9-34.2,22.9-53.33" transform="translate(-808.5 -448.51)"/><path class="cls-3" d="M1039.67,626.79a2,2,0,0,0,2-2v-7.58a2,2,0,0,0-2-2h-20.39v-7.86h20.39a2,2,0,0,0,2-2v-7.58a2,2,0,0,0-2-2h-20.39v-7.86h20.39a2,2,0,0,0,2-2v-7.58a2,2,0,0,0-2-2h-30a2,2,0,0,0-2,2v0h0v46.53h0v0a2,2,0,0,0,2,2h30Z" transform="translate(-808.5 -448.51)"/><path class="cls-3" d="M928.67,626.79a2,2,0,0,0,2-2v-7.58a2,2,0,0,0-2-2h-20.4v-37a2,2,0,0,0-2-2h-7.58a2,2,0,0,0-2,2v46.58h0v0a2,2,0,0,0,2,2h30Z" transform="translate(-808.5 -448.51)"/><path class="cls-3" d="M946.74,576.09h-7.58a2,2,0,0,0-2,2v46.62a2,2,0,0,0,2,2h7.58a2,2,0,0,0,2-2V578.13a2,2,0,0,0-2-2" transform="translate(-808.5 -448.51)"/><path class="cls-3" d="M998.3,576.09h-7.57a2,2,0,0,0-2,2v27.69L967.36,577a1.77,1.77,0,0,0-.16-.22h0l-.12-.13,0,0-.11-.1,0,0-.11-.07-.06,0-.11-.06-.07,0-.12,0-.07,0-.12,0-.07,0-.12,0-.09,0H958.1a2,2,0,0,0-2,2v46.62a2,2,0,0,0,2,2h7.57a2,2,0,0,0,2-2V597.07l21.36,28.84a1.94,1.94,0,0,0,.52.51l0,0,.12.08.06,0a.31.31,0,0,1,.1.05l.1,0,.07,0,.14.05h0a1.89,1.89,0,0,0,.53.08h7.53a2,2,0,0,0,2-2V578.13a2,2,0,0,0-2-2" transform="translate(-808.5 -448.51)"/></g></svg>